HIERARCHY
ROOT Hips
{
	OFFSET 0.000000 0.000000 0.000000
	CHANNELS 6 Xposition Yposition Zposition Zrotation Yrotation Xrotation 
	JOINT LeftUpLeg_virtual
	{
		OFFSET 0.000000 0.000000 0.000000
		CHANNELS 3 Zrotation Yrotation Xrotation
		JOINT LeftUpLeg
		{
			OFFSET 8.479694 -4.795517 -0.379053
			CHANNELS 3 Zrotation Yrotation Xrotation
			JOINT LeftLeg
			{
				OFFSET 0.485052 -32.551468 0.112863
				CHANNELS 3 Zrotation Yrotation Xrotation
				JOINT LeftFoot
				{
					OFFSET 0.438033 -32.635670 -3.012641
					CHANNELS 3 Zrotation Yrotation Xrotation
					JOINT LeftToeBase
					{
						OFFSET 0.970169 -13.225353 11.864223
						CHANNELS 3 Zrotation Yrotation Xrotation
						End Site
						{
							OFFSET 0.000000 0.000000 0.000000
						}
					}
				}
			}
		}
	}
	JOINT RightUpLeg_virtual
	{
		OFFSET 0.000000 0.000000 0.000000
		CHANNELS 3 Zrotation Yrotation Xrotation
		JOINT RightUpLeg
		{
			OFFSET -8.479694 -4.795517 -0.379053
			CHANNELS 3 Zrotation Yrotation Xrotation
			JOINT RightLeg
			{
				OFFSET -0.484100 -32.551483 0.112903
				CHANNELS 3 Zrotation Yrotation Xrotation
				JOINT RightFoot
				{
					OFFSET -0.438985 -32.635651 -3.012681
					CHANNELS 3 Zrotation Yrotation Xrotation
					JOINT RightToeBase
					{
						OFFSET -0.970169 -13.225354 11.864223
						CHANNELS 3 Zrotation Yrotation Xrotation
						End Site
						{
							OFFSET 0.000000 0.000000 0.000000
						}
					}
				}
			}
		}
	}
	JOINT Spine_virtual
	{
		OFFSET 0.000000 0.000000 0.000000
		CHANNELS 3 Zrotation Yrotation Xrotation
		JOINT Spine
		{
			OFFSET 0.000000 7.722015 1.166203
			CHANNELS 3 Zrotation Yrotation Xrotation
			JOINT Spine1
			{
				OFFSET 0.000000 12.024086 0.248766
				CHANNELS 3 Zrotation Yrotation Xrotation
				JOINT Spine2
				{
					OFFSET -0.000000 11.503036 -0.491240
					CHANNELS 3 Zrotation Yrotation Xrotation
					JOINT Neck_virtual
					{
						OFFSET 0.000000 0.000000 0.000000
						CHANNELS 3 Zrotation Yrotation Xrotation
						JOINT Neck
						{
							OFFSET 0.000000 18.430687 -3.123054
							CHANNELS 3 Zrotation Yrotation Xrotation
							JOINT Head
							{
								OFFSET -0.000000 9.051071 1.034021
								CHANNELS 3 Zrotation Yrotation Xrotation
								End Site
								{
									OFFSET 0.000000 0.000000 0.000000
								}
							}
						}
					}
					JOINT LeftShoulder_virtual
					{
						OFFSET 0.000000 0.000000 0.000000
						CHANNELS 3 Zrotation Yrotation Xrotation
						JOINT LeftShoulder
						{
							OFFSET 6.197824 13.665230 -4.064723
							CHANNELS 3 Zrotation Yrotation Xrotation
							JOINT LeftArm
							{
								OFFSET 7.778132 -0.187073 -1.709282
								CHANNELS 3 Zrotation Yrotation Xrotation
								JOINT LeftForeArm
								{
									OFFSET 21.954697 0.000000 -2.041093
									CHANNELS 3 Zrotation Yrotation Xrotation
									JOINT LeftHand
									{
										OFFSET 22.992908 0.000000 -0.870901
										CHANNELS 3 Zrotation Yrotation Xrotation
										End Site
										{
											OFFSET 0.000000 0.000000 0.000000
										}
									}
								}
							}
						}
					}
					JOINT RightShoulder_virtual
					{
						OFFSET 0.000000 0.000000 0.000000
						CHANNELS 3 Zrotation Yrotation Xrotation
						JOINT RightShoulder
						{
							OFFSET -6.197824 13.665230 -4.064723
							CHANNELS 3 Zrotation Yrotation Xrotation
							JOINT RightArm
							{
								OFFSET -7.778132 -0.187073 -1.709282
								CHANNELS 3 Zrotation Yrotation Xrotation
								JOINT RightForeArm
								{
									OFFSET -21.954697 0.000000 -2.041093
									CHANNELS 3 Zrotation Yrotation Xrotation
									JOINT RightHand
									{
										OFFSET -22.992908 0.000000 -0.870901
										CHANNELS 3 Zrotation Yrotation Xrotation
										End Site
										{
											OFFSET 0.000000 0.000000 0.000000
										}
									}
								}
							}
						}
					}
				}
			}
		}
	}
}
MOTION
Frames: 7
Frame Time: 0.033333
4.452673 81.181023 -6.758956 -179.833062 -4.109670 -179.819333 -3.320832 -2.385632 9.266791 1.582210 6.244803 -26.137382 7.741555 5.012549 30.858583 -4.542634 -11.604069 -10.857340 0.000000 0.000000 0.000000 -0.048303 -3.016874 10.437445 0.164763 2.779868 -23.989412 -1.589485 5.254908 31.605020 8.813645 3.675971 -12.069175 0.000000 0.000000 0.000000 2.492289 -0.066657 -6.071204 -0.699720 -0.332240 0.669273 -1.366049 -1.555071 9.144233 0.029828 -0.076127 0.038947 -1.899305 -0.137537 9.758377 -0.017723 -3.897668 -15.532965 0.000000 0.000000 0.000000 -0.357874 0.376227 7.509015 -6.431467 -3.120614 3.691236 -64.442432 3.321538 13.896577 4.431573 -35.763905 4.819529 0.000000 0.000000 0.000000 -4.395205 1.835352 6.717789 27.279458 -0.055587 5.517811 56.961240 3.404041 17.748183 -5.777397 25.154747 -3.986664 0.000000 0.000000 0.000000 
4.470285 81.212509 -6.700103 -179.775169 -4.159018 -179.653236 -3.341081 -2.170023 9.128841 1.484976 6.735585 -26.268443 7.636050 4.853813 31.007467 -4.691169 -11.924074 -11.664781 0.000000 0.000000 0.000000 -0.127777 -3.039245 10.493548 0.037599 3.020093 -23.794417 -1.687855 5.572476 31.779784 8.677034 3.457436 -11.910744 0.000000 0.000000 0.000000 2.398479 -0.207759 -6.311254 -0.668238 -0.373392 0.531283 -1.355151 -1.660827 9.098213 -0.091160 -0.179489 0.086013 -1.838359 -0.065729 9.728396 -0.029982 -3.832805 -15.476435 0.000000 0.000000 0.000000 -0.310807 0.500672 7.537612 -6.399115 -3.099952 3.663483 -64.445499 3.127037 13.780965 4.479200 -35.970139 4.636886 0.000000 0.000000 0.000000 -4.346200 2.017410 6.671220 27.333041 -0.022228 5.542141 56.837662 3.411223 17.670295 -5.734772 25.268594 -3.995766 0.000000 0.000000 0.000000 
4.508619 81.238281 -6.653163 -179.792231 -3.871116 -179.646106 -3.390767 -2.165470 9.196515 1.528491 6.809993 -26.249582 7.647355 4.922658 30.802425 -4.663830 -11.894856 -11.581368 0.000000 0.000000 0.000000 -0.125213 -3.075079 10.462769 0.029706 3.144001 -23.840642 -1.651511 5.731567 31.799079 8.689908 3.403648 -11.881066 0.000000 0.000000 0.000000 2.247277 -0.173180 -6.386525 -0.681829 -0.415290 0.391632 -1.367174 -1.633734 9.103362 -0.040967 -0.117086 0.081210 -1.865989 0.042460 9.652563 -0.135706 -3.638753 -15.457005 0.000000 0.000000 0.000000 -0.342469 0.328437 7.465532 -6.458946 -3.008009 3.623378 -64.354746 2.745289 13.786904 4.443870 -36.387601 4.417147 0.000000 0.000000 0.000000 -4.352839 1.792228 6.701148 27.237066 0.056890 5.480044 56.903645 3.469108 17.584445 -5.705355 25.422335 -4.002588 0.000000 0.000000 0.000000 
4.569869 81.258316 -6.594615 -179.789690 -3.522602 -179.657990 -3.411154 -2.159996 9.107141 1.595268 6.882569 -26.061719 7.695799 5.014988 30.657120 -4.606857 -11.841751 -11.579231 0.000000 0.000000 0.000000 -0.112341 -3.076481 10.465916 0.061758 3.335118 -23.957391 -1.599078 5.917455 31.894064 8.704892 3.325358 -11.839647 0.000000 0.000000 0.000000 2.175086 -0.183882 -6.407009 -0.706180 -0.459544 0.215236 -1.403829 -1.663332 9.123204 -0.006962 -0.137548 0.051781 -1.951642 -0.167332 9.680431 -0.236235 -3.758330 -15.271980 0.000000 0.000000 0.000000 -0.398966 0.343653 7.404706 -6.576707 -2.940346 3.519700 -64.124685 2.160656 13.778760 4.311895 -36.989771 4.266159 0.000000 0.000000 0.000000 -4.452130 1.956970 6.725960 27.311461 0.154342 5.521593 56.743262 3.648860 17.612374 -5.727778 25.788190 -4.046105 0.000000 0.000000 0.000000 
4.676591 81.270851 -6.537429 -179.801902 -3.156560 -179.660476 -3.444692 -2.193392 9.053122 1.703351 6.714960 -25.933559 7.751799 5.074828 30.559144 -4.496306 -11.710403 -11.543615 0.000000 0.000000 0.000000 -0.153617 -3.058160 10.477729 0.139593 3.470996 -24.122408 -1.562342 6.044847 32.046257 8.736895 3.222806 -11.804740 0.000000 0.000000 0.000000 2.095835 -0.472095 -6.377810 -0.746162 -0.575586 -0.007103 -1.436477 -1.485165 9.189399 -0.034037 -0.065324 0.046688 -1.972248 -0.181913 9.755273 -0.433488 -3.737635 -14.987602 0.000000 0.000000 0.000000 -0.373689 0.378881 7.343372 -6.649750 -2.920107 3.424283 -63.802696 1.435320 13.850676 4.172600 -37.801979 4.030453 0.000000 0.000000 0.000000 -4.407772 1.973152 6.742134 27.299590 0.360449 5.456916 56.544407 4.011349 17.592315 -5.645869 26.276708 -4.033675 0.000000 0.000000 0.000000 
4.808650 81.274292 -6.454448 -179.797627 -2.679279 -179.712618 -3.416150 -2.300940 9.018860 1.776568 6.662611 -25.872733 7.851209 5.259712 30.704542 -4.377368 -11.549259 -11.509718 0.000000 0.000000 0.000000 -0.204515 -2.958931 10.441063 0.268735 3.661395 -24.249289 -1.530386 6.168442 32.241642 8.812627 3.118123 -11.719556 0.000000 0.000000 0.000000 2.028784 -0.319933 -6.244225 -0.780512 -0.602149 -0.184204 -1.468382 -1.603717 9.227263 -0.012497 -0.032209 0.063140 -2.041228 -0.210778 9.768029 -0.602303 -3.630760 -14.768329 0.000000 0.000000 0.000000 -0.440522 0.424498 7.475032 -6.725425 -3.015143 3.260186 -63.359348 0.528434 13.996733 3.892375 -38.752325 4.008107 0.000000 0.000000 0.000000 -4.441321 1.844419 6.871768 27.288047 0.714588 5.378966 56.161480 4.528168 17.616438 -5.583792 26.957659 -4.051475 0.000000 0.000000 0.000000 
4.961057 81.276405 -6.294296 -179.766276 -2.283915 -179.724871 -3.409428 -2.265105 8.891600 1.917114 6.477808 -25.833816 7.876504 5.222209 30.732658 -4.251372 -11.343985 -11.395336 0.000000 0.000000 0.000000 -0.245182 -2.799236 10.280704 0.444034 3.822259 -24.338822 -1.502499 6.203011 32.456618 8.882926 2.968585 -11.643465 0.000000 0.000000 0.000000 1.981425 -0.002935 -6.179194 -0.821870 -0.584471 -0.365339 -1.530720 -1.722278 9.403857 -0.020631 -0.041402 -0.012139 -2.004990 -0.209277 9.990239 -0.718050 -3.526382 -14.444943 0.000000 0.000000 0.000000 -0.405999 0.296675 7.660213 -6.813110 -3.170469 3.282336 -62.838840 -0.587347 14.149259 3.709543 -39.937188 3.798397 0.000000 0.000000 0.000000 -4.460091 1.829659 6.973269 27.322027 0.887517 5.290464 55.681365 5.105055 17.872011 -5.643594 27.818599 -4.197657 0.000000 0.000000 0.000000 
